<svg width="16" height="16" viewBox="0 0 16 16" fill="none" xmlns="http://www.w3.org/2000/svg">
<path fill-rule="evenodd" clip-rule="evenodd" d="M13.6869 2.3131C13.8821 2.50837 13.8821 2.82495 13.6869 3.02021L11.8032 4.90391C11.7839 4.92698 11.7629 4.94791 11.7404 4.96664L9.83128 6.87581C9.81367 6.9012 9.79345 6.92532 9.77061 6.94778C9.74982 6.96824 9.72769 6.9865 9.70451 7.00257L7.00103 9.70605C6.98531 9.72846 6.96754 9.74987 6.9477 9.77003C6.92591 9.79217 6.90257 9.81185 6.87801 9.82907L4.95717 11.7499C4.94287 11.7662 4.92769 11.7813 4.91176 11.7953L3.02021 13.6869C2.82495 13.8821 2.50837 13.8821 2.3131 13.6869C2.11784 13.4916 2.11784 13.175 2.3131 12.9798L3.82122 11.4717C2.75881 10.6237 1.92587 9.64109 1.43274 8.99805C1.21147 8.71255 1.09137 8.36158 1.09137 8.00034C1.09137 7.63915 1.21144 7.28822 1.43266 7.00274C1.94399 6.33537 2.81915 5.30576 3.93531 4.43859C5.04651 3.57526 6.44771 2.83334 7.99999 2.83334C9.24062 2.83334 10.3834 3.30715 11.357 3.93586L12.9798 2.3131C13.175 2.11784 13.4916 2.11784 13.6869 2.3131ZM7.99999 3.83334C8.91834 3.83334 9.8098 4.16198 10.6316 4.66127L9.37987 5.913C9.24929 5.82604 9.11049 5.75134 8.96521 5.69011C8.6611 5.56192 8.33463 5.49521 8.00461 5.49383C7.6746 5.49244 7.34758 5.55642 7.04241 5.68205C6.73724 5.80769 6.45997 5.9925 6.22658 6.22583C5.9932 6.45916 5.80832 6.73639 5.68261 7.04153C5.5569 7.34667 5.49286 7.67367 5.49416 8.00369C5.49546 8.3337 5.5621 8.6602 5.69021 8.96433C5.75149 9.1098 5.82626 9.24879 5.91334 9.37954L4.5332 10.7597C3.51939 9.96906 2.70905 9.01918 2.22545 8.38845L2.22545 8.38844L2.22354 8.38597C2.13787 8.27568 2.09137 8.14 2.09137 8.00034C2.09137 7.86069 2.13787 7.72501 2.22354 7.61471L2.22355 7.61472L2.22558 7.61207C2.70971 6.98007 3.52583 6.02306 4.54883 5.22827C5.57747 4.42909 6.76426 3.83334 7.99999 3.83334ZM8.57678 6.61159C8.60107 6.62182 8.62505 6.63269 8.64871 6.64416L6.6445 8.64838C6.63297 8.62461 6.62206 8.60052 6.61178 8.57612C6.53491 8.39364 6.49494 8.19774 6.49415 7.99974C6.49337 7.80173 6.5318 7.60552 6.60722 7.42244C6.68265 7.23936 6.79357 7.07302 6.93361 6.93302C7.07364 6.79302 7.24 6.68213 7.4231 6.60675C7.6062 6.53137 7.80242 6.49299 8.00042 6.49382C8.19843 6.49465 8.39432 6.53467 8.57678 6.61159ZM13.4067 5.65309C13.2151 5.45423 12.8986 5.44833 12.6997 5.63992C12.5009 5.83151 12.495 6.14804 12.6866 6.34691C13.0725 6.74745 13.4355 7.16943 13.7738 7.61085L13.7738 7.61086L13.7759 7.61353C13.8617 7.72389 13.9083 7.85967 13.9084 7.99946C13.9084 8.13924 13.8619 8.27507 13.7763 8.38552L13.7763 8.38551L13.7744 8.38794C13.2903 9.01994 12.4741 9.97695 11.4511 10.7717C10.4228 11.5707 9.23643 12.1663 8.00111 12.1667C7.59748 12.1647 7.19617 12.1053 6.8093 11.9901C6.54464 11.9113 6.26622 12.062 6.18744 12.3267C6.10865 12.5914 6.25934 12.8698 6.52401 12.9486C7.00238 13.0909 7.49861 13.1644 7.99771 13.1667H7.99999C9.55226 13.1667 10.9535 12.4247 12.0647 11.5614C13.1809 10.6942 14.0561 9.66456 14.5674 8.99719C14.7886 8.71148 14.9085 8.36034 14.9084 7.99898C14.9082 7.6377 14.7879 7.28674 14.5666 7.00128C14.2056 6.53045 13.8184 6.08035 13.4067 5.65309Z" fill="#374353"/>
</svg>
