<svg width="16" height="16" viewBox="0 0 16 16" fill="none" xmlns="http://www.w3.org/2000/svg">
<path fill-rule="evenodd" clip-rule="evenodd" d="M2.22559 7.61204C2.70972 6.98004 3.52584 6.02303 4.54884 5.22823C5.57748 4.42906 6.76427 3.83331 8 3.83331C9.23572 3.83331 10.4225 4.42906 11.4512 5.22823C12.474 6.02294 13.2901 6.97981 13.7742 7.61181C13.9532 7.84601 13.9528 8.1549 13.7744 8.38799C13.2902 9.01999 12.4741 9.97696 11.4512 10.7717C10.4225 11.5709 9.23572 12.1666 8 12.1666C6.76427 12.1666 5.57748 11.5709 4.54884 10.7717C3.52584 9.97693 2.70972 9.01992 2.22559 8.38792L2.2256 8.38792L2.22352 8.38524C2.13793 8.27506 2.09146 8.1395 2.09146 7.99998C2.09146 7.86045 2.13793 7.7249 2.22352 7.61472L2.22353 7.61472L2.22559 7.61204ZM8 2.83331C6.44772 2.83331 5.04652 3.57523 3.93532 4.43856C2.81918 5.30572 1.94402 6.33531 1.43269 7.00268C1.21151 7.28806 1.09146 7.63889 1.09146 7.99998C1.09146 8.36106 1.2115 8.71188 1.43267 8.99725C1.944 9.66462 2.81916 10.6942 3.93532 11.5614C5.04652 12.4247 6.44772 13.1666 8 13.1666C9.55227 13.1666 10.9535 12.4247 12.0647 11.5614C13.1815 10.6937 14.0571 9.66337 14.5683 8.99604L14.5683 8.99597C15.0218 8.40377 15.0215 7.59675 14.5685 7.0043L14.5683 7.00392C14.0571 6.33659 13.1815 5.30626 12.0647 4.43856C10.9535 3.57523 9.55227 2.83331 8 2.83331ZM6.5 8C6.5 7.17157 7.17157 6.5 8 6.5C8.82843 6.5 9.5 7.17157 9.5 8C9.5 8.82843 8.82843 9.5 8 9.5C7.17157 9.5 6.5 8.82843 6.5 8ZM8 5.5C6.61929 5.5 5.5 6.61929 5.5 8C5.5 9.38071 6.61929 10.5 8 10.5C9.38071 10.5 10.5 9.38071 10.5 8C10.5 6.61929 9.38071 5.5 8 5.5Z" fill="#374353"/>
</svg>
