<svg width="24" height="24" viewBox="0 0 24 24" fill="none" xmlns="http://www.w3.org/2000/svg">
<path d="M12.0004 2.00033C6.48637 2.00033 2.00037 6.48633 2.00037 12.0003C2.00037 17.5143 6.48637 22.0003 12.0004 22.0003C17.5144 22.0003 22.0004 17.5143 22.0004 12.0003C22.0004 6.48633 17.5144 2.00033 12.0004 2.00033ZM4.00037 12.0003C4.00037 10.1543 4.63437 8.45833 5.68837 7.10333L16.8974 18.3123C15.4994 19.4062 13.7754 20.0004 12.0004 20.0003C7.58937 20.0003 4.00037 16.4113 4.00037 12.0003ZM18.3124 16.8973L7.10337 5.68833C8.50141 4.59462 10.2253 4.00039 12.0004 4.00033C16.4114 4.00033 20.0004 7.58933 20.0004 12.0003C19.9998 13.7753 19.4057 15.4991 18.3124 16.8973Z" fill="white"/>
</svg>
