<svg width="24" height="24" viewBox="0 0 24 24" fill="none" xmlns="http://www.w3.org/2000/svg">
<path d="M11.0013 9.99967H13.0013V14.9997H11.0013V9.99967ZM11.0003 15.9997H13.0003V17.9997H11.0003V15.9997Z" fill="white"/>
<path d="M13.7683 4.1999C13.4203 3.5449 12.7423 3.1379 12.0003 3.1379C11.2583 3.1379 10.5803 3.5449 10.2323 4.2009L2.89432 18.0639C2.73148 18.3683 2.65082 18.71 2.66029 19.0551C2.66976 19.4002 2.76903 19.7369 2.94832 20.0319C3.12501 20.3283 3.37595 20.5735 3.67636 20.7432C3.97677 20.913 4.31626 21.0014 4.66131 20.9999H19.3393C20.0473 20.9999 20.6883 20.6379 21.0533 20.0319C21.2323 19.7368 21.3314 19.4001 21.3409 19.0551C21.3504 18.71 21.2699 18.3684 21.1073 18.0639L13.7683 4.1999ZM4.66131 18.9999L12.0003 5.1369L19.3443 18.9999H4.66131Z" fill="white"/>
</svg>
