<svg width="16" height="16" viewBox="0 0 16 16" fill="none" xmlns="http://www.w3.org/2000/svg">
<path fill-rule="evenodd" clip-rule="evenodd" d="M2.00004 8.66675H2.66671V10.0001V13.3334C2.66671 14.0688 3.26471 14.6668 4.00004 14.6668H12C12.7354 14.6668 13.3334 14.0688 13.3334 13.3334V10.0001V8.66675H14C14.2694 8.66675 14.5134 8.50408 14.616 8.25542C14.7194 8.00608 14.662 7.71942 14.4714 7.52875L8.47138 1.52875C8.21071 1.26809 7.78938 1.26809 7.52871 1.52875L1.52871 7.52875C1.33804 7.71942 1.28071 8.00608 1.38404 8.25542C1.48738 8.50408 1.73071 8.66675 2.00004 8.66675ZM8.00004 2.94275L12 6.94275V10.0001L12.0007 13.3334H4.00005V10.0001V8.00008V6.94342L8.00004 2.94275Z" fill="white"/>
<path fill-rule="evenodd" clip-rule="evenodd" d="M7.99992 11.3333C9.47058 11.3333 10.6666 10.1373 10.6666 8.66667C10.6666 7.196 9.47058 6 7.99992 6C6.52925 6 5.33325 7.196 5.33325 8.66667C5.33325 10.1373 6.52925 11.3333 7.99992 11.3333ZM7.9999 7.33334C8.73523 7.33334 9.33324 7.93134 9.33324 8.66667C9.33324 9.402 8.73523 10 7.9999 10C7.26457 10 6.66657 9.402 6.66657 8.66667C6.66657 7.93134 7.26457 7.33334 7.9999 7.33334Z" fill="white"/>
</svg>
