<svg width="16" height="16" viewBox="0 0 16 16" fill="none" xmlns="http://www.w3.org/2000/svg">
<path d="M1.3335 7.99992L4.66683 10.6666V8.66659H10.6668V7.33325H4.66683V5.33325L1.3335 7.99992Z" fill="#F46A6A"/>
<path d="M8.66747 1.99929C7.87916 1.9971 7.09824 2.15136 6.36997 2.45313C5.6417 2.7549 4.98054 3.19818 4.4248 3.75729L5.36747 4.69996C6.2488 3.81862 7.4208 3.33262 8.66747 3.33262C9.91414 3.33262 11.0861 3.81862 11.9675 4.69996C12.8488 5.58129 13.3348 6.75329 13.3348 7.99996C13.3348 9.24662 12.8488 10.4186 11.9675 11.3C11.0861 12.1813 9.91414 12.6673 8.66747 12.6673C7.4208 12.6673 6.2488 12.1813 5.36747 11.3L4.4248 12.2426C5.55747 13.376 7.06414 14.0006 8.66747 14.0006C10.2708 14.0006 11.7775 13.376 12.9101 12.2426C14.0435 11.11 14.6681 9.60329 14.6681 7.99996C14.6681 6.39662 14.0435 4.88996 12.9101 3.75729C12.3544 3.19818 11.6932 2.7549 10.965 2.45313C10.2367 2.15136 9.45579 1.9971 8.66747 1.99929Z" fill="#F46A6A"/>
</svg>
