<svg width="16" height="16" viewBox="0 0 16 16" fill="none" xmlns="http://www.w3.org/2000/svg">
<path fill-rule="evenodd" clip-rule="evenodd" d="M8 3C6.46833 3 5.22222 4.29858 5.22222 5.89474C5.22222 7.49089 6.46833 8.78947 8 8.78947C9.53167 8.78947 10.7778 7.49089 10.7778 5.89474C10.7778 4.29858 9.53167 3 8 3ZM8 7.63158C7.08111 7.63158 6.33333 6.85232 6.33333 5.89474C6.33333 4.93716 7.08111 4.15789 8 4.15789C8.91889 4.15789 9.66667 4.93716 9.66667 5.89474C9.66667 6.85232 8.91889 7.63158 8 7.63158ZM13 13.4211V14H11.8889V13.4211C11.8889 11.8249 10.6428 10.5263 9.11111 10.5263H6.88889C5.35722 10.5263 4.11111 11.8249 4.11111 13.4211V14H3V13.4211C3 11.1869 4.74444 9.36842 6.88889 9.36842H9.11111C11.255 9.36842 13 11.1869 13 13.4211Z" fill="currentColor"/>
</svg>
