<svg width="16" height="16" viewBox="0 0 16 16" fill="none" xmlns="http://www.w3.org/2000/svg">
<path d="M8 12.9999C10.4812 12.9999 12.5 11.0945 12.5 8.75267C12.5 6.97413 11.3345 5.4499 9.6875 4.81812V5.99832C10.6944 6.55047 11.375 7.57671 11.375 8.75267C11.375 10.5094 9.86131 11.9381 8 11.9381C6.13869 11.9381 4.625 10.5094 4.625 8.75267C4.625 7.57671 5.30562 6.54994 6.3125 5.99832V4.81812C4.6655 5.4499 3.5 6.97413 3.5 8.75267C3.5 11.0945 5.51881 12.9999 8 12.9999Z" fill="#F46A6A"/>
<path d="M7.5 3H8.5V8.45455H7.5V3Z" fill="#F46A6A"/>
</svg>
