<svg width="16" height="16" viewBox="0 0 16 16" fill="none" xmlns="http://www.w3.org/2000/svg">
<mask id="path-1-inside-1_159_2543" fill="white">
<path d="M8 14.5C11.5899 14.5 14.5 11.5899 14.5 8C14.5 4.41015 11.5899 1.5 8 1.5C4.41015 1.5 1.5 4.41015 1.5 8C1.5 11.5899 4.41015 14.5 8 14.5Z"/>
</mask>
<path d="M8.5 5C8.5 4.72386 8.27614 4.5 8 4.5C7.72386 4.5 7.5 4.72386 7.5 5H8H8.5ZM8 8.5H7.5C7.5 8.65738 7.5741 8.80557 7.7 8.9L8 8.5ZM9.7 10.4C9.92091 10.5657 10.2343 10.5209 10.4 10.3C10.5657 10.0791 10.5209 9.76569 10.3 9.6L10 10L9.7 10.4ZM8 5H7.5V8.5H8H8.5V5H8ZM8 8.5L7.7 8.9L9.7 10.4L10 10L10.3 9.6L8.3 8.1L8 8.5ZM14.5 8H13.5C13.5 11.0376 11.0376 13.5 8 13.5V14.5V15.5C12.1421 15.5 15.5 12.1421 15.5 8H14.5ZM8 14.5V13.5C4.96243 13.5 2.5 11.0376 2.5 8H1.5H0.5C0.5 12.1421 3.85786 15.5 8 15.5V14.5ZM1.5 8H2.5C2.5 4.96243 4.96243 2.5 8 2.5V1.5V0.5C3.85786 0.5 0.5 3.85786 0.5 8H1.5ZM8 1.5V2.5C11.0376 2.5 13.5 4.96243 13.5 8H14.5H15.5C15.5 3.85786 12.1421 0.5 8 0.5V1.5Z" fill="#558FE6" mask="url(#path-1-inside-1_159_2543)"/>
</svg>
